<?xml version="1.0" encoding="UTF-8"?>
<svg version="1.1" xmlns="http://www.w3.org/2000/svg" width="641" height="793">
<path d="M0 0 C5.00861658 1.66293989 9.05307456 4.55424703 13.375 7.5 C14.8410231 8.48976514 16.30717406 9.47934093 17.7734375 10.46875 C18.58683594 11.01966309 19.40023438 11.57057617 20.23828125 12.13818359 C22.8000802 13.8652238 25.36980854 15.57988359 27.94259644 17.29049683 C34.71751446 21.79510078 41.46667322 26.33651078 48.203125 30.8984375 C50.02733679 32.13282279 51.85155563 33.36719765 53.67578125 34.6015625 C56.4578426 36.48424846 59.23932742 38.36775823 62.01904297 40.25390625 C73.13226265 47.79256049 84.3107608 55.18332758 95.70507812 62.29101562 C102.53210187 66.56431093 109.1991734 71.08296018 115.88183594 75.57714844 C119.2067648 77.81062993 122.54108389 80.0299667 125.875 82.25 C127.09770569 83.06503 128.32036324 83.88013224 129.54296875 84.6953125 C130.41381104 85.27587402 130.41381104 85.27587402 131.30224609 85.86816406 C133.93066406 87.62044271 136.55908203 89.37272135 139.1875 91.125 C140.0962085 91.73077881 141.00491699 92.33655762 141.94116211 92.96069336 C143.85443114 94.23625695 145.76761281 95.5119516 147.68066406 96.7878418 C152.48567763 99.99217147 157.29179028 103.1948086 162.10133362 106.39233398 C180.63014655 118.71189907 199.10194655 131.11407328 217.53735352 143.57299805 C228.94157121 151.27788546 240.37619837 158.93569272 251.83491516 166.55929565 C254.74536463 168.49598521 257.654022 170.4353512 260.5625 172.375 C261.47902344 172.98601562 262.39554688 173.59703125 263.33984375 174.2265625 C271.625 179.75 271.625 179.75 274.5625 181.71484375 C277.26041009 183.51481471 279.97276181 185.29192894 282.6875 187.06640625 C283.5026709 187.60233398 284.3178418 188.13826172 285.15771484 188.69042969 C286.77997581 189.75695471 288.40522884 190.81894491 290.03369141 191.87597656 C290.77796387 192.36678711 291.52223633 192.85759766 292.2890625 193.36328125 C293.28993896 194.01744019 293.28993896 194.01744019 294.31103516 194.68481445 C296 196 296 196 298 199 C298.24723816 201.70718384 298.24723816 201.70718384 298.24291992 205.05322266 C298.24593613 206.32514969 298.24895233 207.59707672 298.25205994 208.907547 C298.24509981 210.32638668 298.23789386 211.74522517 298.23046875 213.1640625 C298.22977872 214.66586797 298.22988681 216.16767398 298.23072815 217.66947937 C298.22998098 221.78933069 298.21574435 225.90903323 298.19804382 230.02884293 C298.18750343 232.6241566 298.17986706 235.21946244 298.17321777 237.81478882 C298.14638848 248.13484779 298.10136183 258.45472798 298.04592323 268.7746706 C298.00701813 276.16926047 297.98031762 283.56384071 297.95751953 290.95849609 C297.92627424 300.84749479 297.87788565 310.73627008 297.81127834 320.62509537 C297.77530079 325.97893467 297.74500494 331.33264216 297.72982788 336.68658447 C297.71476039 341.77147034 297.68024845 346.85588673 297.63187981 351.94056129 C297.6171988 353.80642492 297.60895781 355.6723536 297.60806465 357.53827477 C297.58677764 380.49437364 292.76499296 401.2390832 279 420 C279.56267578 421.01707031 279.56267578 421.01707031 280.13671875 422.0546875 C281.7721016 425.02885984 283.38627325 428.01403054 285 431 C285.42925781 431.76699219 285.85851562 432.53398437 286.30078125 433.32421875 C289.11444736 438.57578449 291.1920909 444.00313628 293.125 449.625 C293.36669922 450.31021729 293.60839844 450.99543457 293.85742188 451.70141602 C298.22888675 464.88617327 299.58367807 478.13272407 299.5 491.9375 C299.49890228 492.69158142 299.49780457 493.44566284 299.49667358 494.22259521 C299.43850881 508.25932501 297.60178533 521.41064316 294 535 C293.79713379 535.81082031 293.59426758 536.62164063 293.38525391 537.45703125 C290.76097854 547.89274618 286.96523298 557.4643007 282 567 C281.65952637 567.65887207 281.31905273 568.31774414 280.96826172 568.99658203 C263.08361343 603.2010743 233.63216675 625.25201966 202 646 C193.26826722 651.74287559 184.68745062 657.68254966 176.1159668 663.66137695 C164.89478147 671.48171183 153.58361267 679.16805708 142.27050781 686.85449219 C139.53382487 688.71449729 136.79787563 690.57557289 134.0625 692.4375 C133.15822266 693.05302734 132.25394531 693.66855469 131.32226562 694.30273438 C124.66264486 698.84488878 118.04557528 703.44578539 111.4375 708.0625 C103.50938617 713.59673315 95.52291586 719.02805667 87.46313477 724.3684082 C79.56303726 729.6076507 71.71760189 734.92532144 63.875 740.25 C50.57965358 749.27376226 37.23016061 758.21303742 23.84765625 767.10693359 C19.89582147 769.73403638 15.94771301 772.36670945 12 775 C10.87502375 775.75003562 9.75002648 776.50003972 8.625 777.25 C7.75875 777.8275 6.8925 778.405 6 779 C3 781 3 781 0 781 C-0.09265338 770.76884005 -0.1637413 760.5377798 -0.20724869 750.30628586 C-0.22812944 745.55543964 -0.2564559 740.80488031 -0.30175781 736.05419922 C-0.3451983 731.47006661 -0.36913343 726.88621006 -0.37950897 722.30188751 C-0.38690359 720.55234684 -0.40134355 718.80282138 -0.42292023 717.05339813 C-0.45193101 714.60395075 -0.45595708 712.15564605 -0.45410156 709.70605469 C-0.46848267 708.98172745 -0.48286377 708.25740021 -0.49768066 707.51112366 C-0.46971817 704.10284885 -0.26490248 702.33467793 1.87994385 699.62487793 C4.20078274 697.84611377 6.53917913 696.19041579 9 694.609375 C9.96437988 693.98595215 10.92875977 693.3625293 11.92236328 692.72021484 C13.44579346 691.7449585 13.44579346 691.7449585 15 690.75 C17.08088561 689.40388764 19.1616163 688.05753577 21.2421875 686.7109375 C23.16122201 685.47359173 25.08046876 684.23657503 27 683 C29.38048073 681.46624587 31.75513531 679.92521224 34.125 678.375 C34.97320312 677.82585938 35.82140625 677.27671875 36.6953125 676.7109375 C41.76756313 673.2434418 41.76756313 673.2434418 44.4567585 667.94679451 C44.6278635 665.36388924 44.63789763 662.82296088 44.59594727 660.23461914 C44.6000058 659.25485611 44.60406433 658.27509308 44.60824585 657.26564026 C44.61376304 655.13822991 44.60775475 653.01076555 44.59158516 650.8834095 C44.56610491 647.49508459 44.57098873 644.1079736 44.58348083 640.71958923 C44.6042443 633.50042668 44.58461473 626.28163776 44.5625 619.0625 C44.5412672 610.74804379 44.5371787 602.43398455 44.56300163 594.11953545 C44.56630905 590.81963426 44.54530834 587.52052703 44.52259827 584.22071838 C44.47147998 548.49475404 54.65361316 517.43691286 79.8125 491.75 C86.0238479 485.59163273 92.54416092 480.60955237 100 476 C101.59521484 474.98873047 101.59521484 474.98873047 103.22265625 473.95703125 C116.1473466 466.14175065 136.55049367 454.91008774 152 456 C153.80777272 457.80777272 153.15597299 460.58068025 153.17700195 463.0168457 C153.19625481 464.94938957 153.19625481 464.94938957 153.21589661 466.92097473 C153.22406391 468.33923968 153.23150766 469.75750896 153.23828125 471.17578125 C153.24235678 471.88698812 153.2464323 472.598195 153.25063133 473.3309536 C153.27151121 477.09620247 153.28580378 480.86141469 153.29516602 484.62670898 C153.30622645 488.51754556 153.34061571 492.40780956 153.38033772 496.29844379 C153.40647969 499.28817308 153.41485571 502.27776558 153.41844749 505.26759911 C153.42332088 506.70174203 153.4349564 508.13587855 153.45348549 509.56991005 C153.47781754 511.57812372 153.47449798 513.58661474 153.4699707 515.5949707 C153.47583694 516.73779007 153.48170319 517.88060944 153.48774719 519.05805969 C152.89081206 522.65858794 151.81542632 523.75751281 149 526 C147.15613564 527.13551764 145.27758432 528.21587765 143.375 529.25 C130.84246939 536.40271259 119.7423985 545.49809595 115.46408081 559.79029846 C113.78454575 566.51510155 113.743079 573.00714886 113.8046875 579.91015625 C113.8075174 581.11820419 113.81034729 582.32625214 113.81326294 583.57090759 C113.82439233 587.40154228 113.84948377 591.23193685 113.875 595.0625 C113.88503915 597.67122056 113.89416336 600.27994482 113.90234375 602.88867188 C113.92430795 609.2591955 113.95771305 615.62958058 114 622 C114.92111572 621.38592285 115.84223145 620.7718457 116.79125977 620.13916016 C133.95117189 608.69921874 133.95117189 608.69921874 136.13334656 607.24446106 C137.59530206 606.26980703 139.05722601 605.29510568 140.51911926 604.32035828 C144.02658474 601.98176324 147.53449405 599.64384227 151.04370117 597.30786133 C203.49699638 563.13729368 203.49699638 563.13729368 230.80859375 508.6171875 C233.6528818 493.59150028 232.44791716 477.08330835 223.66796875 464.09765625 C208.54371479 445.07722446 177.96321883 438.48144694 156 431 C156 429.68 156 428.36 156 427 C157.58984375 425.46484375 157.58984375 425.46484375 159.9375 423.9375 C160.85273438 423.33292969 161.76796875 422.72835938 162.7109375 422.10546875 C163.79632813 421.41066406 164.88171875 420.71585937 166 420 C167.28447573 419.16371431 168.56829388 418.32641804 169.8515625 417.48828125 C173.48416432 415.12215796 177.12827549 412.77433745 180.77539062 410.43066406 C184.98514253 407.72333898 189.18708493 405.00390463 193.38598633 402.27978516 C197.36074817 399.70203183 201.34493476 397.14019154 205.33984375 394.59375 C207.14325448 393.43753948 208.94664032 392.28129014 210.75 391.125 C211.59602783 390.58955566 212.44205566 390.05411133 213.3137207 389.50244141 C219.01712439 385.8336256 224.28528808 382.25635633 227.25 375.9375 C227.56453125 375.28652344 227.8790625 374.63554687 228.203125 373.96484375 C229.77871173 370.07994119 230.13934605 366.59005029 230.20532227 362.40527344 C230.22526749 361.28441345 230.24521271 360.16355347 230.26576233 359.00872803 C230.28247482 357.80444153 230.29918732 356.60015503 230.31640625 355.359375 C230.3475779 353.50339691 230.3475779 353.50339691 230.37937927 351.60992432 C230.43365872 348.32861309 230.48391779 345.04727267 230.53222656 341.76586914 C230.58256092 338.41416896 230.6382636 335.0625628 230.69335938 331.7109375 C230.80044509 325.14069536 230.90223036 318.57038702 231 312 C228.32283654 313.56147362 225.64732468 315.12566886 222.97265625 316.69140625 C222.22520142 317.12698853 221.47774658 317.5625708 220.7076416 318.01135254 C211.75636859 323.25781334 203.16958797 329.02392018 194.71875 335.0390625 C193.64669312 335.79521851 193.64669312 335.79521851 192.55297852 336.56665039 C191.17937785 337.53792001 189.81222588 338.5183986 188.45288086 339.50952148 C187.82776611 339.95110596 187.20265137 340.39269043 186.55859375 340.84765625 C185.74346313 341.4355896 185.74346313 341.4355896 184.91186523 342.03540039 C182.34432161 343.33081156 179.83328127 343.62719328 177 344 C176.85441509 336.99729549 176.71244928 329.99452366 176.57275391 322.99169922 C176.52504331 320.61993836 176.47656744 318.24819275 176.42724609 315.87646484 C176.26207539 307.91793343 176.11976441 299.9593433 176 292 C175.97341309 290.38285095 175.97341309 290.38285095 175.94628906 288.73303223 C175.90044862 285.68920372 175.86947632 282.64561974 175.84375 279.6015625 C175.8288855 278.69981293 175.814021 277.79806335 175.79870605 276.86898804 C175.76092668 268.62483246 175.76092668 268.62483246 178 265 C180.37231445 263.00219727 180.37231445 263.00219727 183.36328125 261.06640625 C183.90345886 260.71141556 184.44363647 260.35642487 185.00018311 259.99067688 C186.76334375 258.83576425 188.53752726 257.69915682 190.3125 256.5625 C191.53198215 255.76898973 192.75064519 254.97421929 193.96850586 254.17822266 C196.44120108 252.56337628 198.91766082 250.95454139 201.39648438 249.34912109 C204.75162311 247.16989375 208.07526697 244.94641633 211.390625 242.70703125 C212.35315186 242.05726318 213.31567871 241.40749512 214.30737305 240.73803711 C216.11497122 239.51572593 217.92117362 238.29134752 219.72583008 237.06469727 C220.52915771 236.52514404 221.33248535 235.98559082 222.16015625 235.4296875 C222.85761963 234.95772949 223.55508301 234.48577148 224.27368164 233.99951172 C226 233 226 233 228 233 C228 232.34 228 231.68 228 231 C227.25886963 230.72784668 226.51773926 230.45569336 225.75415039 230.17529297 C223.14454712 229.06168335 221.20885348 227.87008638 218.93359375 226.1953125 C214.00424152 222.6695509 208.97810155 219.31539772 203.91015625 215.9921875 C203.05919373 215.43354004 202.2082312 214.87489258 201.33148193 214.29931641 C199.52067151 213.11094492 197.70962906 211.92292693 195.89837646 210.73522949 C179.31195733 199.8551554 162.80299866 188.86776801 146.375 177.75 C131.83853726 167.91336803 117.23957356 158.1949899 102.51660156 148.63964844 C96.64265567 144.81258008 90.82320204 140.90362252 85 137 C82.93789418 135.62440891 80.87540732 134.24938883 78.8125 132.875 C67 125 67 125 64.12475586 123.08251953 C62.27002839 121.84642098 60.41470817 120.61120987 58.55810547 119.37792969 C48.04505624 112.38790229 37.58920715 105.31281627 27.125 98.25 C24.20027171 96.2762185 21.27547742 94.30253497 18.35055542 92.32904053 C16.54291834 91.10937212 14.73539653 89.88953285 12.92800903 88.66949463 C12.10630219 88.11501648 11.28459534 87.56053833 10.43798828 86.98925781 C9.6727887 86.47157837 8.90758911 85.95389893 8.11920166 85.42053223 C6.78996151 84.52952289 5.45406423 83.6482824 4.10882568 82.78161621 C0.09833567 80.19667134 0.09833567 80.19667134 -1 78 C-1.0979825 75.56401276 -1.13632808 73.15667113 -1.12939453 70.72045898 C-1.13114685 69.97074829 -1.13289917 69.2210376 -1.13470459 68.4486084 C-1.13911479 65.96441348 -1.13618833 63.48028943 -1.1328125 60.99609375 C-1.13348571 59.27498867 -1.13445587 57.55388368 -1.13571167 55.83277893 C-1.13718746 52.22387793 -1.13503764 48.61500165 -1.13037109 45.00610352 C-1.1246696 40.36977137 -1.12795622 35.73349705 -1.13394356 31.09716702 C-1.13754874 27.54311178 -1.13641086 23.98907037 -1.13381577 20.43501472 C-1.1331466 18.72490495 -1.13397457 17.01479393 -1.13629532 15.30468559 C-1.1388216 12.91980515 -1.13498182 10.5350198 -1.12939453 8.15014648 C-1.13141876 7.43687698 -1.13344299 6.72360748 -1.13552856 5.98872375 C-1.11426361 1.11426361 -1.11426361 1.11426361 0 0 Z " fill="#010000" transform="translate(329,6)"/>
<path d="M0 0 C0.99 0.33 1.98 0.66 3 1 C3.20884789 10.91824892 3.36860245 20.83597209 3.46630955 30.75597477 C3.51321395 35.3627666 3.57678984 39.96805064 3.67895508 44.57397461 C3.77699833 49.02208107 3.8306084 53.46874095 3.85389519 57.91784477 C3.87048122 59.6120627 3.90287365 61.30620439 3.95157051 62.99980354 C4.31702013 76.24036386 4.31702013 76.24036386 1.10691833 80.52929688 C-1.18094492 82.3443026 -3.39226454 83.69752528 -6 85 C-7.28789429 85.86794189 -7.28789429 85.86794189 -8.60180664 86.75341797 C-9.34293701 87.20346191 -10.08406738 87.65350586 -10.84765625 88.1171875 C-15.95414037 91.30465188 -20.9509979 94.63165817 -25.93359375 98.0078125 C-27.17162247 98.84611603 -27.17162247 98.84611603 -28.43466187 99.70135498 C-30.18700565 100.88847261 -31.93912481 102.07592188 -33.69104004 103.26367188 C-49.96704614 114.29423061 -66.31575776 125.20670962 -82.75 136 C-99.2157108 146.81510364 -115.57549903 157.77168604 -131.85375977 168.86645508 C-135.93876346 171.6365992 -140.04784478 174.36972973 -144.15771484 177.1027832 C-148.64740996 180.0996412 -153.1038479 183.14473707 -157.5625 186.1875 C-169.787965 194.51552353 -182.04832736 202.79161557 -194.3125 211.0625 C-195.71352463 212.00758926 -195.71352463 212.00758926 -197.14285278 212.97177124 C-207.07831694 219.67341752 -217.0175797 226.36841554 -227 233 C-227.99 233.66 -228.98 234.32 -230 235 C-230.31611732 237.71894045 -230.43735386 240.21437736 -230.43237305 242.93798828 C-230.44264684 243.77085295 -230.45292063 244.60371761 -230.46350574 245.4618206 C-230.49345718 248.16472448 -230.50294528 250.8672654 -230.51171875 253.5703125 C-230.52717704 255.23625979 -230.54397248 256.90219522 -230.56213379 258.56811523 C-230.62015031 264.75361257 -230.65223874 270.93933109 -230.6875 277.125 C-230.790625 290.94375 -230.89375 304.7625 -231 319 C-200.64 319 -170.28 319 -139 319 C-137.6326447 321.73471061 -137.86526055 323.91739916 -137.85473633 326.97851562 C-137.84835648 328.23321655 -137.84197662 329.48791748 -137.83540344 330.78063965 C-137.833875 332.15584271 -137.83276091 333.53104628 -137.83203125 334.90625 C-137.82881933 336.3110762 -137.82545531 337.71590205 -137.82194519 339.12072754 C-137.81595365 342.06633276 -137.81410536 345.01190864 -137.81469727 347.95751953 C-137.814799 351.73736416 -137.80113513 355.51702143 -137.78392506 359.29682159 C-137.77282414 362.19810862 -137.77077745 365.09935003 -137.77130699 368.00065613 C-137.77012444 369.39455309 -137.76568729 370.78845114 -137.75797462 372.18232727 C-137.74821176 374.12868851 -137.75230739 376.0751045 -137.75708008 378.02148438 C-137.75565506 379.13019897 -137.75423004 380.23891357 -137.75276184 381.38122559 C-138 384 -138 384 -140 386 C-142.8923628 386.1882538 -145.68785624 386.25167631 -148.58056641 386.22705078 C-149.48281637 386.22729185 -150.38506634 386.22753292 -151.31465721 386.2277813 C-154.24372494 386.22628502 -157.17254013 386.21103794 -160.1015625 386.1953125 C-161.90649289 386.19237304 -163.71142498 386.190332 -165.51635742 386.18920898 C-172.21926423 386.17871042 -178.92213458 386.15078815 -185.625 386.125 C-200.59875 386.08375 -215.5725 386.0425 -231 386 C-231 416.36 -231 446.72 -231 478 C-206.51959889 475.06879621 -206.51959889 475.06879621 -186.23046875 461.8984375 C-180.37502639 453.60678919 -178.63961812 445.8873674 -177.4296875 435.87890625 C-177 433 -177 433 -176 432 C-173.85799676 431.90047707 -171.71267295 431.87200321 -169.56835938 431.87060547 C-168.89682327 431.86885315 -168.22528717 431.86710083 -167.53340149 431.86529541 C-165.30349172 431.8608777 -163.07366064 431.86381458 -160.84375 431.8671875 C-159.30057764 431.86651444 -157.75740539 431.86554439 -156.2142334 431.86428833 C-152.9759826 431.86281147 -149.73775933 431.86496553 -146.49951172 431.86962891 C-142.33957477 431.8753262 -138.17970234 431.87204713 -134.01976776 431.86605644 C-130.83200592 431.86245051 -127.64425949 431.86358956 -124.45649719 431.86618423 C-122.92222588 431.86685342 -121.38795318 431.86602539 -119.85368347 431.86370468 C-117.71296459 431.86117762 -115.57235158 431.86501946 -113.43164062 431.87060547 C-111.60082947 431.87179886 -111.60082947 431.87179886 -109.73303223 431.87301636 C-107 432 -107 432 -106 433 C-105.22922836 453.08410671 -112.41514122 472.68633751 -122 490 C-122.54398438 490.98742187 -123.08796875 491.97484375 -123.6484375 492.9921875 C-138.47471267 517.94372376 -165.24844693 534.63252679 -192.875 541.875 C-211.07766991 546.41467995 -229.01097795 547.20393364 -247.6875 547.1875 C-248.63188934 547.18789276 -249.57627869 547.18828552 -250.54928589 547.18869019 C-291.6635419 547.16822905 -291.6635419 547.16822905 -298 544 C-298.62437568 474.76514005 -299.10766022 405.53147142 -299.12283063 336.2935183 C-299.1239133 331.69808567 -299.12648011 327.10265763 -299.13058019 322.50722671 C-299.14509764 306.16109571 -299.13077127 289.81569794 -299.04630661 273.46975327 C-299.00748302 265.61127613 -299.0034326 257.75382943 -299.03260005 249.89530712 C-299.05237173 244.06697419 -299.04309368 238.23911926 -299.01289403 232.41083378 C-298.99616773 228.97690953 -298.99273246 225.54425779 -299.0239296 222.11040688 C-299.05126562 218.35394994 -299.02933871 214.60081651 -298.99560547 210.84448242 C-299.01541348 209.74156797 -299.03522148 208.63865353 -299.05562973 207.50231743 C-298.91926016 200.16399025 -298.91926016 200.16399025 -296.25363636 196.78871059 C-294.24759387 195.00694372 -292.23550385 193.47911991 -290 192 C-289.05181396 191.30543701 -288.10362793 190.61087402 -287.12670898 189.89526367 C-286.25860596 189.32525635 -285.39050293 188.75524902 -284.49609375 188.16796875 C-283.51592285 187.51989258 -282.53575195 186.87181641 -281.52587891 186.20410156 C-280.50671387 185.53862305 -279.48754883 184.87314453 -278.4375 184.1875 C-277.37192871 183.48463867 -276.30635742 182.78177734 -275.20849609 182.05761719 C-273.09310184 180.66232302 -270.97628166 179.26918784 -268.85791016 177.87841797 C-265.26874238 175.51936647 -261.69560014 173.13700009 -258.125 170.75 C-256.40607889 169.60388166 -254.68714264 168.457786 -252.96806335 167.31190491 C-250.99523667 165.99682478 -249.02261996 164.68143022 -247.05004883 163.3659668 C-240.01680728 158.67605899 -232.98269609 153.98747634 -225.94454956 149.30493164 C-221.81656122 146.55841324 -217.68941742 143.81062724 -213.5625 141.0625 C-212.67701477 140.47293518 -211.79152954 139.88337036 -210.87921143 139.27593994 C-200.32065183 132.24370144 -189.77867446 125.18794527 -179.26953125 118.08203125 C-178.31053421 117.43381912 -177.35153717 116.78560699 -176.36347961 116.11775208 C-171.76104925 113.00591859 -167.16107023 109.89054873 -162.56469727 106.76977539 C-155.15029643 101.74542151 -147.72755883 96.76886767 -140.1015625 92.0703125 C-130.02586476 85.86117355 -120.28407027 79.15521501 -110.5 72.5 C-89.45934416 58.18795145 -89.45934416 58.18795145 -78.65275574 51.52134705 C-72.2715685 47.57785129 -66.04371647 43.41844666 -59.82330322 39.22735596 C-56.8497261 37.22569351 -53.8678952 35.2364123 -50.88671875 33.24609375 C-50.00975845 32.66014687 -50.00975845 32.66014687 -49.11508179 32.06236267 C-37.19240817 24.096204 -25.24937885 16.1627461 -13.25 8.3125 C-12.68848236 7.94470428 -12.12696472 7.57690857 -11.5484314 7.19796753 C-9.97585447 6.1684262 -8.4020223 5.14080294 -6.828125 4.11328125 C-5.9402832 3.53360596 -5.05244141 2.95393066 -4.13769531 2.35668945 C-2 1 -2 1 0 0 Z " fill="#010000" transform="translate(311,7)"/>
<path d="M0 0 C3.09565201 0.2801495 3.98216483 0.97996048 6.0859375 3.34375 C6.84132813 4.3853125 7.59671875 5.426875 8.375 6.5 C9.2587721 7.69489338 10.14565927 8.88748717 11.03515625 10.078125 C11.74889404 11.03428711 11.74889404 11.03428711 12.47705078 12.00976562 C15.1532719 15.50712929 17.99039046 18.87016284 20.8125 22.25 C25.57952137 27.98209205 30.19367339 33.80145829 34.6875 39.75 C39.44311114 46.04271311 44.38751945 52.11327702 49.5234375 58.09765625 C53.12237915 62.31534339 56.55736563 66.65468573 60 71 C61.9976723 73.50186358 63.99894047 76.00084526 66 78.5 C71.40434218 85.25292262 71.40434218 85.25292262 74.08984375 88.62109375 C77.57847574 92.99479094 81.09335972 97.34582687 84.62768555 101.68261719 C85.18367432 102.36485352 85.73966309 103.04708984 86.3125 103.75 C87.15131714 104.77915527 87.15131714 104.77915527 88.00708008 105.82910156 C92.05319294 110.80516072 96.02194082 115.83627616 99.95605469 120.90112305 C103.64216856 125.61710085 107.49879679 130.1753389 111.47314453 134.65112305 C114.04848056 137.61319078 115.78485803 140.25846115 117 144 C116 145 116 145 113.22227478 145.12025452 C111.98095291 145.11803391 110.73963104 145.11581329 109.46069336 145.11352539 C108.77779739 145.11367142 108.09490143 145.11381744 107.39131165 145.1139679 C105.12412386 145.11326876 102.85701726 145.1054764 100.58984375 145.09765625 C99.02185613 145.09579207 97.45386793 145.09436817 95.88587952 145.09336853 C91.75123497 145.08954334 87.61662534 145.07971306 83.48199463 145.06866455 C79.26599602 145.05845044 75.04999178 145.05387091 70.83398438 145.04882812 C62.55597353 145.03809079 54.2779911 145.02101436 46 145 C46.00444122 145.77942459 46.00888245 146.55884918 46.01345825 147.3618927 C46.05416412 154.84399187 46.08429487 162.32603459 46.10362434 169.80821705 C46.11389694 173.65140968 46.12773752 177.49450809 46.15087891 181.33764648 C46.2928776 205.59944172 45.68034911 229.6903694 42.1875 253.75 C41.92984863 255.54981323 41.92984863 255.54981323 41.66699219 257.38598633 C33.50854869 312.38980373 10.98370185 365.6318842 -24 409 C-24.82113281 410.02738281 -25.64226562 411.05476563 -26.48828125 412.11328125 C-33.04639344 420.12159322 -40.27000403 427.4796978 -47.5625 434.8125 C-48.04528412 435.30055115 -48.52806824 435.78860229 -49.02548218 436.29144287 C-55.66657578 442.98848372 -62.57537245 449.17751 -70 455 C-70.68940674 455.54342041 -71.37881348 456.08684082 -72.08911133 456.64672852 C-105.00934032 482.29393318 -142.28694236 501.34213337 -182.3125 513.125 C-183.31434326 513.42035645 -184.31618652 513.71571289 -185.34838867 514.02001953 C-196.04691444 517.04823536 -196.04691444 517.04823536 -200.44091797 514.68994141 C-201.28283691 514.08327637 -202.12475586 513.47661133 -202.9921875 512.8515625 C-203.94609375 512.17480469 -204.9 511.49804688 -205.8828125 510.80078125 C-207.36394531 509.72376953 -207.36394531 509.72376953 -208.875 508.625 C-210.80864887 507.24044435 -212.74356795 505.85766111 -214.6796875 504.4765625 C-215.69168213 503.7532373 -216.70367676 503.02991211 -217.74633789 502.28466797 C-222.48323727 498.95849521 -227.30649692 495.76808388 -232.13085938 492.57080078 C-235.9749698 490.02207801 -239.79697855 487.44168697 -243.61328125 484.8515625 C-244.24091873 484.42573883 -244.86855621 483.99991516 -245.51521301 483.56118774 C-247.44789245 482.24949366 -249.38021091 480.93726903 -251.3125 479.625 C-259.78459819 473.87347465 -268.26634179 468.141167 -276.8125 462.5 C-282.94641533 458.4390201 -288.96615661 454.23396165 -294.9375 449.9375 C-296.08472534 449.11378906 -296.08472534 449.11378906 -297.25512695 448.2734375 C-297.9637085 447.75910156 -298.67229004 447.24476563 -299.40234375 446.71484375 C-300.02616943 446.26230225 -300.64999512 445.80976074 -301.29272461 445.34350586 C-303.01505606 443.98815194 -304.55485406 442.64934232 -306 441 C-306 440.34 -306 439.68 -306 439 C-298.21721201 438.84128006 -290.56563362 439.36586278 -282.8125 440 C-226.17541777 444.26776307 -171.05423122 433.27823556 -126 397 C-125.49194824 396.59346191 -124.98389648 396.18692383 -124.46044922 395.76806641 C-111.65855197 385.4596877 -100.08288711 373.99283798 -90 361 C-88.8553125 359.59814453 -88.8553125 359.59814453 -87.6875 358.16796875 C-45.51996779 305.52612966 -37.05332968 242.18413485 -36.375 176.9375 C-36.25125 166.398125 -36.1275 155.85875 -36 145 C-60.42 145 -84.84 145 -110 145 C-111 141 -111 141 -110.09472656 139.29931641 C-109.61487305 138.73905762 -109.13501953 138.17879883 -108.640625 137.6015625 C-108.10751709 136.96468506 -107.57440918 136.32780762 -107.02514648 135.67163086 C-106.43934814 134.99624268 -105.8535498 134.32085449 -105.25 133.625 C-104.03670159 132.18187913 -102.82447926 130.73785293 -101.61328125 129.29296875 C-101.00178223 128.57028809 -100.3902832 127.84760742 -99.76025391 127.10302734 C-97.24844673 124.1020971 -94.83818525 121.02751727 -92.4375 117.9375 C-88.65729187 113.0986684 -84.84247627 108.28953076 -81 103.5 C-75.74345063 96.94453496 -70.54057729 90.34861235 -65.35888672 83.73388672 C-63.07546697 80.82033173 -60.78749197 77.91035807 -58.5 75 C-57.58331177 73.83335027 -56.6666451 72.66668361 -55.75 71.5 C-50.25 64.5 -50.25 64.5 -48.87573242 62.75097656 C-47.95656687 61.58109984 -47.03745905 60.41117777 -46.1184082 59.24121094 C-43.86543906 56.37328843 -41.61156277 53.5060901 -39.35546875 50.640625 C-33.61400977 43.34559476 -27.90396837 36.02676523 -22.2097168 28.69482422 C-18.49019453 23.90796969 -14.75263174 19.13592777 -11 14.375 C-7.2637263 9.63345389 -3.59100101 4.85270407 0 0 Z " fill="#000000" transform="translate(319,141)"/>
<path d="M0 0 C2.65869141 1.33837891 2.65869141 1.33837891 5.3515625 3.2265625 C6.85952393 4.26864868 6.85952393 4.26864868 8.39794922 5.33178711 C9.46287598 6.08854736 10.52780273 6.84530762 11.625 7.625 C12.75057949 8.40955622 13.87705677 9.19282587 15.00439453 9.97485352 C18.34808578 12.3000229 21.67463514 14.64869588 25 17 C27.50855097 18.76465158 30.01838567 20.52746002 32.52856445 22.28979492 C34.10101988 23.39399861 35.67246261 24.49964578 37.24291992 25.60668945 C45.48649837 31.39459354 53.87497252 36.9640312 62.27490234 42.52124023 C68.97378605 46.95883585 75.6104021 51.47128195 82.20043945 56.06811523 C83.8913562 57.23496133 85.59606238 58.3826241 87.32495117 59.49243164 C91.84361846 62.44432197 91.84361846 62.44432197 92.66357422 65.35791016 C92.97219647 67.78164746 93.12920786 70.08206494 93.1328125 72.5234375 C93.13474609 73.44012207 93.13667969 74.35680664 93.13867188 75.30126953 C93.13416016 76.31560059 93.12964844 77.32993164 93.125 78.375 C93.12306641 79.45249512 93.12113281 80.52999023 93.11914062 81.64013672 C93.02319415 101.42909726 92.46542269 121.21705996 92 141 C87.2396054 140.46156812 83.77991638 138.26278137 79.84375 135.71484375 C79.14906616 135.27260971 78.45438232 134.83037567 77.73864746 134.3747406 C69.2256225 128.92157945 60.86136002 123.24411409 52.5 117.5625 C50.92594957 116.49649621 49.35173116 115.43074041 47.77734375 114.36523438 C38.38372418 108.00281046 29.0239066 101.59221651 19.68041992 95.15646362 C15.95949251 92.5957244 12.2294496 90.04830222 8.5 87.5 C2.15114741 83.15962817 -4.18877989 78.80664644 -10.52172852 74.44311523 C-15.72083072 70.86669933 -20.94195812 67.3232631 -26.16503906 63.78198242 C-36.58907231 56.7120864 -46.97230231 49.59795298 -57.21337891 42.26513672 C-58.95532823 41.03163284 -60.71399915 39.8269499 -62.48046875 38.62890625 C-64.00607422 37.57509766 -64.00607422 37.57509766 -65.5625 36.5 C-66.43003906 35.9121875 -67.29757813 35.324375 -68.19140625 34.71875 C-68.78824219 34.1515625 -69.38507813 33.584375 -70 33 C-70 31.68 -70 30.36 -70 29 C-68.14375 28.32517578 -68.14375 28.32517578 -66.25 27.63671875 C-47.593209 20.75125726 -29.36471102 12.84052854 -12.06201172 2.99658203 C-11.34803223 2.60196777 -10.63405273 2.20735352 -9.8984375 1.80078125 C-9.28661621 1.45184814 -8.67479492 1.10291504 -8.04443359 0.7434082 C-5.18283651 -0.29714149 -3.02805334 -0.30782817 0 0 Z " fill="#010100" transform="translate(222,645)"/>
<path d="M0 0 C2.0078125 0.23046875 2.0078125 0.23046875 5.0078125 2.23046875 C5.1953125 5.85546875 5.1953125 5.85546875 5.0078125 9.23046875 C6.2865625 9.45734375 7.5653125 9.68421875 8.8828125 9.91796875 C14.24776642 11.11869653 19.51607095 13.00425756 24.0078125 16.23046875 C24.97265625 18.09765625 24.97265625 18.09765625 25.0078125 20.23046875 C23.79296875 22.58984375 23.79296875 22.58984375 22.0703125 24.98046875 C21.50441406 25.7796875 20.93851562 26.57890625 20.35546875 27.40234375 C19.91074219 28.005625 19.46601563 28.60890625 19.0078125 29.23046875 C14.4365335 28.68191527 10.33345455 27.81302072 6.0078125 26.23046875 C5.55977418 28.91869868 5.2351681 31.51969045 5.0078125 34.23046875 C4.92015625 35.0709375 4.8325 35.91140625 4.7421875 36.77734375 C4.6895393 39.67299482 4.82914497 41.57171871 6.0078125 44.23046875 C8.83590303 46.12932953 11.7101345 47.35179732 14.84765625 48.671875 C20.7491105 51.58248099 24.59874937 56.4123425 27.5078125 62.23046875 C28.7394504 69.62029615 28.48707243 76.45767451 25.0078125 83.23046875 C19.9579773 90.16886021 13.14073347 93.19723851 5.0078125 95.23046875 C4.6778125 98.86046875 4.3478125 102.49046875 4.0078125 106.23046875 C0.3778125 106.23046875 -3.2521875 106.23046875 -6.9921875 106.23046875 C-8.19491569 103.82501237 -8.09290222 102.28049922 -8.0546875 99.60546875 C-8.04566406 98.78820312 -8.03664063 97.9709375 -8.02734375 97.12890625 C-8.01574219 96.50242187 -8.00414062 95.8759375 -7.9921875 95.23046875 C-8.86617188 95.10091797 -8.86617188 95.10091797 -9.7578125 94.96875 C-16.35563695 93.83799078 -26.10073976 92.12191649 -30.9921875 87.23046875 C-30.64748643 81.48545083 -28.99645369 77.97914757 -25.9921875 73.23046875 C-19.42095714 74.08887272 -14.0495545 76.60560972 -7.9921875 79.23046875 C-7.6621875 72.96046875 -7.3321875 66.69046875 -6.9921875 60.23046875 C-8.6421875 59.57046875 -10.2921875 58.91046875 -11.9921875 58.23046875 C-20.2360369 54.54515726 -26.81759178 49.21391727 -30.4921875 40.79296875 C-31.62308638 32.73531424 -31.97962684 26.0405134 -26.9921875 19.23046875 C-21.64445922 12.9641895 -15.96463483 10.76926833 -7.9921875 9.23046875 C-7.8478125 7.93109375 -7.7034375 6.63171875 -7.5546875 5.29296875 C-6.92968061 -0.33209324 -5.65725479 0.11481513 0 0 Z M-10.6171875 27.29296875 C-13.37204047 30.07070301 -13.37204047 30.07070301 -12.9921875 33.85546875 C-11.86159992 37.7086476 -11.86159992 37.7086476 -8.9921875 40.23046875 C-8.3321875 40.23046875 -7.6721875 40.23046875 -6.9921875 40.23046875 C-6.9921875 35.28046875 -6.9921875 30.33046875 -6.9921875 25.23046875 C-8.41752488 25.12749849 -8.41752488 25.12749849 -10.6171875 27.29296875 Z M4.0078125 63.23046875 C4.0078125 68.18046875 4.0078125 73.13046875 4.0078125 78.23046875 C8.13184723 76.5819005 8.13184723 76.5819005 10.0078125 73.23046875 C10.67525127 70.81702208 10.67525127 70.81702208 10.0078125 68.23046875 C8.15588241 66.25471775 6.21427533 64.8393479 4.0078125 63.23046875 Z " fill="#020201" transform="translate(322.9921875,566.76953125)"/>
</svg>
